<?xml version="1.0" encoding="UTF-8"?>
<svg width="101px" height="31px" viewBox="0 0 101 31" version="1.1" xmlns="http://www.w3.org/2000/svg" xmlns:xlink="http://www.w3.org/1999/xlink">
    <title>britvic-grey</title>
    <g id="Symbols" stroke="none" stroke-width="1" fill="none" fill-rule="evenodd">
        <g id="britvic-grey" fill="#4A4F55">
            <path d="M91.7441,7.1228 C91.7441,7.1228 93.0631,8.1868 94.7531,7.7698 C96.1311,7.4308 98.2881,5.8358 99.5731,0.0028 L99.5761,-0.0002 C99.5761,-0.0002 90.4061,1.2108 91.7441,7.1258 L91.7441,7.1228 Z" id="leaf"></path>
            <path d="M85.5459,2.2766 C85.5459,2.2766 85.6349,2.5666 85.6559,2.8626 C85.6799,3.1576 85.6509,4.0216 85.5459,4.5996 C85.5349,4.6606 85.4769,5.1266 85.7039,5.1366 C85.7039,5.1366 85.9499,5.1596 86.1869,5.2286 C86.4229,5.2986 88.3039,5.6436 90.8149,9.3186 C90.8149,9.3186 90.8919,9.4046 90.9149,9.4266 C90.9379,9.4486 90.9539,9.4616 90.9839,9.4616 C91.0489,9.4616 91.1129,9.4066 91.1459,9.3886 C91.1819,9.3666 91.7719,9.0126 91.8579,8.5896 C91.8649,8.5546 91.870933,8.4976 91.870933,8.4446 C91.870933,8.3916 91.8789,8.2576 91.6459,7.7326 C91.4799,7.3606 91.2659,7.0396 91.2659,7.0396 L90.8559,6.4126 C90.8559,6.4126 88.6839,3.2576 86.1469,2.4056 C85.8729,2.3126 85.5459,2.2766 85.5459,2.2766" id="stalk"></path>
            <polygon id="Fill-18" points="0 30.0093 101 30.0093 101 28.9693 0 28.9693"></polygon>
            <path d="M97.9414,15.3308 C97.6794,12.9768 95.8574,12.7298 94.3324,12.7298 C92.0224,12.7298 90.1504,14.7178 90.1504,17.1718 C90.1504,19.6248 92.0224,21.6138 94.3324,21.6138 C95.9444,21.6138 97.4924,20.7678 98.5324,19.6088 L100.6974,21.5328 C99.2674,23.3858 96.9494,24.5908 94.3324,24.5908 C89.9874,24.5908 86.4634,21.2688 86.4634,17.1718 C86.4634,13.0738 89.9874,9.7528 94.3324,9.7528 C96.8804,9.7528 99.3214,10.7218 100.7584,12.4938 L97.9414,15.3308 Z" id="C"></path>
            <path d="M78.6865,10.8425 L78.6865,10.9745 C78.6865,10.9745 78.7425,10.9745 78.7685,10.9855 C79.0675,11.1075 79.5335,11.8425 79.5335,12.4555 L79.5335,22.2085 C79.5335,22.2085 79.5415,23.0285 79.4185,23.4245 C79.3145,23.7625 79.1595,24.4145 78.4995,24.5405 L78.4995,24.6815 L83.8285,24.6825 L83.8285,24.5225 C83.8285,24.5225 83.4245,24.3195 83.2615,23.9675 C83.2155,23.8705 82.8645,23.3085 82.8645,21.8395 L82.8645,12.6625 C82.8645,12.6625 82.8095,11.0205 83.7225,11.0025 L83.7225,10.8415 L78.6865,10.8425 Z" id="I"></path>
            <path d="M58.9229,10.8415 L58.9249,11.0285 C58.9249,11.0285 59.0989,11.0735 59.2479,11.1675 C59.5459,11.3555 59.7739,11.7635 59.8749,11.9265 C60.3009,12.6055 64.2779,22.3965 64.2779,22.3965 C64.2779,22.3965 64.6069,23.2415 64.6009,23.8605 C64.6009,23.9625 64.6409,24.3235 64.3009,24.5385 L64.3049,24.6775 L70.7029,24.6805 L70.7009,24.5275 C70.7009,24.5275 70.2759,24.2645 70.2799,23.7165 C70.2819,23.4655 70.4559,22.8825 70.5359,22.6925 C70.6159,22.5025 74.3559,13.0875 74.3559,13.0875 C74.3559,13.0875 75.0719,11.3615 75.9329,11.0365 L75.9349,10.8415 L70.7149,10.8415 L70.7139,11.0085 C70.7139,11.0085 71.2219,11.2215 71.2149,11.8785 C71.2119,12.3105 70.8969,12.9685 70.8899,12.9895 C70.8819,13.0095 67.5889,21.1355 67.5889,21.1355 C67.5889,21.1355 67.5589,21.2435 67.4589,21.2435 C67.3639,21.2435 67.3409,21.1305 67.3409,21.1305 L63.7739,12.1235 C63.7739,12.1235 63.6829,11.9115 63.6859,11.6465 C63.6879,11.3735 63.9189,11.1885 64.1849,11.0095 L64.1839,10.8415 L58.9229,10.8415 Z" id="V"></path>
            <path d="M56.833,10.8415 L56.833,14.6635 L56.591,14.6635 C56.591,14.6635 56.52,13.9215 55.267,13.8245 C55.169,13.8175 51.934,13.8265 51.934,13.8265 L51.921,22.7815 C51.921,22.7815 51.932,23.2795 52.034,23.6645 C52.072,23.8075 52.294,24.4285 52.968,24.5665 L52.968,24.6885 L47.58,24.6885 L47.58,24.5665 C48.254,24.4285 48.477,23.8075 48.515,23.6645 C48.616,23.2795 48.627,22.7815 48.627,22.7815 L48.615,13.8265 C48.615,13.8265 45.378,13.8175 45.282,13.8245 C44.028,13.9215 43.958,14.6635 43.958,14.6635 L43.716,14.6635 L43.716,10.8415 L56.833,10.8415 Z" id="T"></path>
            <path d="M35.2734,10.8425 L35.2734,10.9745 C35.2734,10.9745 35.3294,10.9745 35.3544,10.9855 C35.6544,11.1075 36.1204,11.8425 36.1204,12.4555 L36.1204,22.2085 C36.1204,22.2085 36.1284,23.0285 36.0054,23.4245 C35.9014,23.7625 35.7464,24.4145 35.0864,24.5405 L35.0864,24.6815 L40.4154,24.6825 L40.4154,24.5225 C40.4154,24.5225 40.0114,24.3195 39.8474,23.9675 C39.8024,23.8705 39.4524,23.3085 39.4524,21.8395 L39.4524,12.6625 C39.4524,12.6625 39.3954,11.0205 40.3084,11.0025 L40.3084,10.8415 L35.2734,10.8425 Z" id="I"></path>
            <path d="M21.9443,13.5842 L21.9443,16.4412 L27.1243,16.4412 C27.1243,16.4412 28.4753,16.5402 28.4753,15.0232 C28.4753,13.9182 27.2253,13.5842 26.9203,13.5842 L21.9443,13.5842 M30.7073,12.0422 C31.9053,13.2362 31.9143,15.0182 31.9133,15.3092 C31.9123,16.6722 31.2133,17.6032 31.0623,17.8052 C29.7983,19.5122 28.2193,19.3732 28.2193,19.3732 L28.1793,19.5212 C28.1793,19.5212 31.2833,23.8492 31.5723,24.1612 C31.8983,24.5142 32.1933,24.4822 32.1933,24.4822 L32.1933,24.6802 L26.8793,24.6762 C27.0023,24.2812 27.1163,24.3262 27.1163,24.0552 C27.1163,23.9512 26.9993,23.7282 26.9233,23.5812 C26.5783,22.9052 24.0303,19.4192 24.0303,19.4192 L21.9433,19.4182 L21.9423,22.2542 C21.9423,22.2542 21.9333,23.2382 21.9643,23.5082 C22.0043,23.8682 22.7693,24.4232 22.7693,24.4232 L22.7693,24.6772 L17.5263,24.6772 L17.5263,24.4222 C18.3053,24.0362 18.4523,23.4672 18.4523,23.3032 C18.4523,23.1482 18.4513,22.7232 18.4513,22.7232 C18.4513,22.7232 18.4523,12.9862 18.4523,12.9362 C18.4523,12.2862 18.4053,12.0782 18.3683,11.9242 C18.1573,11.0442 17.5723,11.0582 17.5723,11.0582 L17.5733,10.8412 C17.5733,10.8412 27.7823,10.8382 28.0363,10.8412 C29.6983,10.8672 30.6653,12.0012 30.7073,12.0422" id="R"></path>
            <path d="M4.3818,19.0818 L4.3818,22.0418 L9.4118,22.0418 C9.4118,22.0418 10.8608,21.9498 10.8608,20.5138 C10.8608,19.1168 9.4258,19.0818 9.4258,19.0818 L4.3818,19.0818 Z M4.3818,13.6118 L4.3818,16.2438 L9.1398,16.2438 C9.1398,16.2438 10.5668,16.3288 10.5668,14.8938 C10.5668,13.4958 9.1528,13.6108 9.1528,13.6108 L4.3818,13.6118 Z M10.4508,10.8418 C10.7048,10.8418 11.1268,10.9118 11.2488,10.9428 C12.7368,11.3188 13.3438,12.4168 13.4018,12.5018 C13.8548,13.1628 13.9588,13.9818 13.9588,14.4128 C13.9588,15.0428 13.7588,15.5548 13.7108,15.6638 C12.9778,17.3428 11.9188,17.4718 11.9188,17.4718 L11.9188,17.6368 C12.6548,17.8108 12.8178,17.9728 13.1958,18.2598 C13.8758,18.7738 14.3468,19.9238 14.3588,20.9178 C14.3688,21.6998 14.0598,22.4308 14.0438,22.4708 C13.5878,23.5808 12.8828,24.0688 12.7718,24.1438 C11.9218,24.7098 11.1508,24.6788 11.1508,24.6788 L0.0108,24.6788 L0.0108,24.4098 C0.8748,24.1498 0.8608,23.3798 0.8608,23.3798 C0.8608,23.3798 0.8628,12.9728 0.8628,12.9238 C0.8628,12.2728 0.8178,12.0638 0.7658,11.9148 C0.4848,11.1078 0.0118,11.2018 0.0118,11.2018 L0.0108,10.8418 L10.4508,10.8418 Z" id="B"></path>
        </g>
    </g>
</svg>