<svg xmlns:xlink="http://www.w3.org/1999/xlink" xmlns="http://www.w3.org/2000/svg" id="Layer_1" data-name="Layer 1" viewBox="0 0 156.87 29.34" width="160"  height="30" >
  <defs>
    <style>
      .cls-1 {
        fill: #191919;
        fill-rule: evenodd;
      }
    </style>
  </defs>
  <path class="cls-1" d="M81.64,6.85c1.41,0,3.13.29,4.75.88v5.12c-1.6-1.89-3.47-2.48-5.38-2.48-3.5,0-5.99,3-5.99,7.72s2.53,7.3,6.19,7.3c1.86,0,3.69-.72,5.51-2.9v4.9c-2.01,1.41-4.39,1.96-6.5,1.96-5.67,0-9.67-4.47-9.67-10.48,0-7.76,4.51-12.02,11.08-12.02ZM145.36,5.52c1.55-1.56,3.98-2.37,6.94-2.25,1.26.05,2.43.29,3.57.71v.23s0,3.65,0,3.65v.22s0,.82,0,.82v.18c-1.31-1.69-2.79-2.57-4.47-2.63-2.02-.08-3.33.96-3.39,2.71-.07,1.64.96,2.74,2.52,3.89l1.12.83c1.38,1.01,2.37,1.73,2.86,2.28,1.74,1.92,2.44,3.46,2.35,5.68-.18,4.67-3.35,7.57-7.95,7.38-1.29-.05-3-.38-4.82-.99,0-.23,0-1.49,0-2.78v-.51c0-.93,0-1.81.04-2.23,1.05,1.75,3.12,3.16,4.65,3.23,2,.08,3.43-1.17,3.52-3.19.08-2.31-1.38-3.34-3.35-4.7-1.54-1.06-2.68-1.95-3.52-2.8-2.82-2.9-2.48-7.3-.07-9.71h0ZM130.6,7.06c2.69,0,4.73.32,6.42,1.74,1.56,1.27,2.37,2.76,2.37,4.82,0,2.66-1.51,5-3.89,5.52,0,0,1.63,3,3.68,6.39.72,1.19,1.17,2.26,2.45,3.54h-4.74l-.14-.24-.29-.49c-.48-.81-1.31-2.19-2.16-3.64l-.64-1.1c-1.33-2.28-2.55-4.42-2.48-4.5v4.66c0,2.1-.08,3.69.54,5.31h-5.23c.62-1.62.54-3.22.54-5.31v-12.16c0-1.75-.05-3.29-.57-4.55h4.15ZM122.56,7.05v4.2c-.62-.53-1.32-.89-2.94-.89-1.03,0-1.9,0-3.36,0h-.72v5.83h5.33v3.24h-5.33v6.4h3.17s.61,0,.61,0c1.05,0,2.38.15,3.72-1.03v4.26h-12.22c.58-1.51.55-3,.54-4.9v-12.57c0-1.75-.05-3.29-.57-4.55h11.76s0,0,0,0ZM95.46,7.06c-.51,1.26-.56,2.8-.56,4.55v4.6h6.96v-4.6c0-1.75-.05-3.29-.56-4.55h5.28c-.52,1.26-.56,2.8-.57,4.55v12.57c0,1.9-.03,3.39.54,4.9h-5.24c.62-1.62.54-3.22.54-5.31v-4.3h-6.96v4.3c0,2.1-.08,3.69.54,5.31h-5.23c.62-1.62.54-3.22.54-5.31v-12.16c0-1.75-.05-3.29-.57-4.55h5.28ZM49.88,7.05l5.24,16.91c.58,1.83.95,3.29,2.08,5.12h-.01s-6.78,0-6.78,0c.69-1.26,1.07-2.87,1.1-3.87.04-1.56-.94-2.9-2.22-3.05-.79-.09-1.48.07-1.91.32-.14-.48-.24-.69-.47-1.09-.08-.45,0-1.3.22-1.67.46-.73,1.16-.53,1.69-1.35.77-1.18.45-3.45-.31-4.76-.39,1.13-1.26,1.46-1.93,1.97-.98.75-1.13,1.71-.72,2.69.06.13.12.26.19.39l.13.26c.26.51.48,1.06.26,1.93-.3-.44-.9-.94-.9-.94-.54.37-.46.77-.28,1,.54-.03,1.12.3,1.52,1.5-.31-.12-.6-.23-1.28-.23-1.34,0-2.6,1-2.56,3.08.02,1.29.51,2.81,1.09,3.8h-6.67c1.18-1.77,1.91-3.43,2.45-4.91l6.46-17.12h3.61ZM70.5,7.05v3.77c-.96-1-2.98-1.04-5.34-1.04v13.99c0,2.1-.07,3.69.54,5.31h-5.23c.62-1.62.54-3.22.54-5.31v-13.99h-.61c-2.12,0-2.94.06-4.65,1.07v-3.8s14.75,0,14.75,0h0ZM24.6,7.06c-.52,1.26-.56,2.8-.56,4.55v4.6h6.96v-4.6c0-1.75-.05-3.29-.56-4.55h5.28c-.52,1.26-.56,2.8-.56,4.55v12.16c0,2.1-.08,3.69.54,5.31h-5.23c.61-1.62.54-3.22.54-5.31v-4.3h-6.96v4.3c0,2.1-.07,3.69.54,5.31h-5.24c.62-1.62.54-3.22.54-5.31v-12.16c0-1.75-.05-3.29-.56-4.55h5.28ZM17.14,2.98v3.98c-.95-.76-1.7-.86-3.69-.93h-2.64v18.32c0,2.36.08,3.19.75,4.72h-5.96c.67-1.38.76-2.36.76-4.72V6.01h-2.27s-.5,0-.5,0c-1.25,0-2.48.08-3.58.89v-3.92h17.14ZM131.16,9.9v8.74c2.79-.23,3.98-2.03,3.98-4.46v-.42c0-2.17-1.02-3.86-3.98-3.86ZM130.19,0c.86,0,1.51.72,1.51,1.64s-.65,1.61-1.5,1.61c-.93,0-1.52-.79-1.52-1.61,0-1,.7-1.64,1.52-1.64ZM115.3,0c.45,0,.73.23.9.47,0,0,0,.01,0,.02l-.28.24s-.01,0-.02,0c-.16-.18-.34-.31-.59-.31-.23,0-.43.14-.43.46,0,.27.2.38.57.52.48.17.87.44.87.98,0,.47-.3.89-.98.89-.52,0-.85-.28-1.04-.54,0-.01,0-.02,0-.02l.29-.24s.02,0,.02,0c.17.22.41.39.78.39.28,0,.5-.17.5-.44,0-.31-.2-.47-.61-.62-.48-.18-.84-.4-.84-.95C114.45.34,114.85,0,115.3,0h0ZM126.55,0c.69,0,1.29.4,1.29,1.42,0,1.21-.57,1.82-1.39,1.82-.55,0-.89-.27-1.05-.54,0,0,0-.01,0-.01l.29-.26s.01,0,.02,0c.18.29.41.41.78.41.54,0,.85-.43.9-1.25-.2.27-.57.45-.94.45-.62,0-1.15-.36-1.15-.97,0-.58.48-1.06,1.25-1.06ZM113.3.06s.01,0,.01.01v.4s0,.01-.01.01h-1.48v.96h1.02s.01.01.01.02v.38s0,.01-.01.01h-1.02v.91h1.59s.01,0,.01.01v.4s0,.01-.01.01h-2.03s-.01,0-.01-.01V.07s0-.01.01-.01h1.92ZM119.78.06s.01,0,.01.01v.4s0,.01-.01.01h-1.12v2.7s0,.01-.01.01h-.43s-.01,0-.01-.01V.49h-1.11s-.01,0-.01-.02V.07s0-.01.01-.01h2.68ZM120.68,2.58s.01,0,.01.02v.58s0,.01-.01.01h-.55s-.01,0-.01-.01v-.58s0-.01.01-.01h.55ZM124.21.06s.01,0,.01.01v3.11s0,.01-.01.01h-.43s-.01,0-.01-.01V.55c-.1.1-.36.16-.59.17-.01,0-.01,0-.01-.01v-.38s0-.01.01-.01c.25-.01.47-.12.6-.24,0,0,.02-.01.03-.01h.41ZM134.64.06s.01,0,.01.01v1.84h.6s.01,0,.01.01v.38s0,.01-.01.01h-.6v.85s0,.01-.01.01h-.4s-.01,0-.01-.01v-.85h-1.68s-.01,0-.01-.01v-.4h0s1.64-1.85,1.64-1.85h0s.45,0,.45,0ZM130.19.41c-.69,0-1.07.51-1.07,1.23,0,.65.41,1.21,1.07,1.21s1.06-.53,1.06-1.21-.43-1.23-1.06-1.23h0ZM134.23.59l-1.19,1.32h1.19V.59ZM126.51.39c-.45,0-.77.26-.77.65s.34.61.77.61.81-.3.81-.63c0-.31-.21-.62-.81-.62h0Z"/>
</svg>